<?xml version="1.0" encoding="utf-8"?>
<!-- Generator: Adobe Illustrator 19.1.0, SVG Export Plug-In . SVG Version: 6.00 Build 0)  -->
<svg version="1.1" id="Isolation_Mode" xmlns="http://www.w3.org/2000/svg" xmlns:xlink="http://www.w3.org/1999/xlink" x="0px"
	 y="0px" viewBox="0 0 200 25.7" style="enable-background:new 0 0 200 25.7;" xml:space="preserve">
<style type="text/css">
	.st0{fill:#FFFFFF;}
</style>
<g>
	<path class="st0" d="M9.4,14c0.2-0.3,0.3-0.4,0.3-0.4c-0.3-0.2-0.6-0.4-0.9-0.5c-0.1,0.2-0.2,0.4-0.4,0.6C8.7,13.7,9,13.8,9.4,14z
		 M24.1,7.8l-0.4,0.3c-0.6,0.5-1.7,1.3-2.9,2.2l0,0l0,0C18.5,12,16,14,16,14c0.6,0.4,2.4,1.5,3,2c0.1-0.1,0.4-0.4,0.6-0.6
		c0.2-0.2,0.4-0.4,0.6-0.3c0.7,0.3,0.8,0.7,0.8,0.7l0.1,0.4l0.8-0.3c0,0,0,0,0.1,0c0,0,0.1,0,0.1,0c0.1,0,0.1,0,0.2,0
		c0.1,0,0.2,0,0.3,0.1c0.1,0,0.2,0.1,0.2,0.1c0.1,0.1,0.1,0.1,0.1,0.2c0,0.1,0,0.1,0,0.2c0,0,0,0.1-0.1,0.1l-1.3,0.9l-0.1,0l0,0
		c0,0.1,0.1,0.1,0,0.2c-0.1,0.1-0.3,0-0.3,0c0,0-0.1,0.1-0.2,0.1l-0.9,0.5c0,0-0.1,0-0.1,0c0,0-0.1,0-0.2,0c-0.1,0-0.1,0-0.2,0
		c-0.1,0-0.1,0-0.2-0.1c-0.1,0-0.1-0.1-0.1-0.1c0,0-0.1,0-0.1-0.1c0,0,0,0,0,0l0.2-0.8l-0.3-0.1v0l-5.7-1.7c0,0-4.1,1.7-4.3,1.7
		c-0.2,0.1-0.4,0.1-0.6,0C8,17.2,7.8,17,8,16.5c0.2-0.5,0.4-0.9,0.6-1.3C8.3,15,8,14.6,7.8,14.4C7.4,14.9,7,15.2,7,15.2
		c-0.1-0.1,0.2-0.6,0.7-1.3c-0.1-0.1-0.1-0.2-0.1-0.3c0-0.1,0.1,0,0.3,0c0.3-0.3,0.5-0.6,0.7-0.8c-2.3-1.5-2.7-2.4-2.5-2.7
		c0.2-0.3,1.3,0,1.3,0s0.1-0.1,0.2-0.1c0.6-0.1,1.7,0.4,2.7,0.9c0.2-0.3,0.5-0.7,0.8-1.2c-0.1-0.1-0.2-0.3-0.1-0.3
		c0.1-0.1,0.2,0,0.4,0c0.7-0.8,1.3-1.4,1.5-1.3c0.1,0.1-0.2,0.6-0.7,1.3c0.6,0.2,1.7,0.9,2.2,1.1c2.5-1.2,5.8-2.8,6.2-2.9
		c0.2-0.1,0.9-0.5,1.6-0.8l1-0.5c-2.1-3.3-5.8-5.4-10-5.4c-6.6,0-12,5.4-12,12c0,6.6,5.4,12,12,12c6.6,0,12-5.4,12-12
		C25.2,11,24.8,9.3,24.1,7.8z M10.7,11.1c0.6,0.3,1.1,0.6,1.1,0.6c0,0,0.2-0.1,0.5-0.2c-0.4-0.4-0.8-0.8-0.9-1.1
		C11.1,10.7,10.9,11,10.7,11.1z"/>
	<path class="st0" d="M38.6,7.8l-0.2,1.7h-3.3v2.3h2.6v1.7h-2.6V18h-2.1V7.8H38.6z"/>
	<path class="st0" d="M43.4,7.8v6.7c0,0.6,0.1,1,0.2,1.2c0.2,0.5,0.7,0.7,1.4,0.7c0.9,0,1.5-0.4,1.6-1.2c0-0.2,0-0.4,0-0.9V7.8h2.1
		v6.9c0,1,0,1.2-0.2,1.6c-0.3,0.8-1.3,1.9-3.5,1.9c-1.6,0-2.7-0.5-3.3-1.4c-0.3-0.5-0.4-0.9-0.4-1.9V7.8H43.4z"/>
	<path class="st0" d="M54.2,7.8v8.5h3.7L57.5,18h-5.4V7.8H54.2z"/>
	<path class="st0" d="M62.6,7.8v8.5h3.7L65.9,18h-5.4V7.8H62.6z"/>
	<path class="st0" d="M79.6,10c-0.9-0.6-1.6-0.8-2.4-0.8c-0.8,0-1.4,0.5-1.4,1.2c0,0.5,0.3,0.8,1.1,1l1.2,0.3c1.7,0.5,2.6,1.5,2.6,3
		c0,2.1-1.7,3.4-4.2,3.4c-1.2,0-2.5-0.3-3.5-0.9l0.8-1.6c1,0.5,1.8,0.8,2.8,0.8c1.2,0,1.8-0.5,1.8-1.4c0-0.7-0.4-1.1-1.3-1.3
		l-1.1-0.3c-1-0.3-1.6-0.7-2-1.3c-0.3-0.5-0.4-1-0.4-1.6c0-1.9,1.5-3.2,3.7-3.2c1.3,0,2.5,0.4,3.4,1L79.6,10z"/>
	<path class="st0" d="M87.5,7.8L90.7,18h-2.2l-0.7-2.4h-3L84.1,18h-2.1l3.4-10.3H87.5z M87.3,13.9c0,0-0.3-1.1-0.6-2.1
		c-0.1-0.5-0.4-1.8-0.4-1.8s-0.3,1.2-0.5,2c-0.2,0.7-0.3,1.2-0.5,1.9H87.3z"/>
	<path class="st0" d="M95,7.8V18h-2.1V7.8H95z"/>
	<path class="st0" d="M100.6,7.8v8.5h3.7l-0.4,1.7h-5.4V7.8H100.6z"/>
	<path class="st0" d="M113.1,7.8v6.7c0,0.6,0.1,1,0.2,1.2c0.2,0.5,0.7,0.7,1.4,0.7c0.9,0,1.5-0.4,1.6-1.2c0-0.2,0-0.4,0-0.9V7.8h2.1
		v6.9c0,1,0,1.2-0.2,1.6c-0.3,0.8-1.3,1.9-3.5,1.9c-1.6,0-2.7-0.5-3.3-1.4c-0.3-0.5-0.4-0.9-0.4-1.9V7.8H113.1z"/>
	<path class="st0" d="M124.1,7.8l2,4.1c0.5,1.1,0.9,2.2,1.1,2.9c-0.1-0.8-0.1-2.1-0.2-2.8l0-4.2h2V18h-2.1l-1.8-3.9
		c-0.6-1.3-1.2-2.7-1.4-3.4c0.1,0.8,0.1,2,0.1,2.9l0.1,4.4h-2V7.8H124.1z"/>
	<path class="st0" d="M134.5,7.8V18h-2.1V7.8H134.5z"/>
	<path class="st0" d="M139.3,7.8l1.7,5.3c0.1,0.5,0.3,1,0.5,1.8c0.1-0.6,0.4-1.5,0.6-2l1.7-5.1h2.2l-3.6,10.3h-1.9L137,7.8H139.3z"
		/>
	<path class="st0" d="M154.3,7.8L154,9.5h-3.5v2.4h2.9v1.7h-2.9v2.7h3.9V18h-6V7.8H154.3z"/>
	<path class="st0" d="M161.2,7.8c1.8,0,3,1.2,3,3c0,1.5-1,2.8-2.3,2.8c0.2,0.2,0.3,0.3,0.4,0.4c0.6,0.7,2.5,4,2.5,4h-2.4
		c-0.4-0.7-0.6-1-1-1.7c-1-1.8-1.3-2.3-1.7-2.5c-0.1,0-0.2-0.1-0.3-0.1V18h-2V7.8H161.2z M159.4,12.2h0.7c0.9,0,1.3-0.1,1.5-0.3
		c0.3-0.2,0.4-0.6,0.4-1c0-0.6-0.3-1.1-0.7-1.2c-0.2-0.1-0.7-0.1-1.2-0.1h-0.7V12.2z"/>
	<path class="st0" d="M173.1,10c-0.9-0.6-1.6-0.8-2.4-0.8c-0.8,0-1.4,0.5-1.4,1.2c0,0.5,0.3,0.8,1.1,1l1.2,0.3
		c1.7,0.5,2.6,1.5,2.6,3c0,2.1-1.7,3.4-4.2,3.4c-1.2,0-2.5-0.3-3.5-0.9l0.8-1.6c1,0.5,1.8,0.8,2.8,0.8c1.2,0,1.8-0.5,1.8-1.4
		c0-0.7-0.4-1.1-1.3-1.3l-1.1-0.3c-1-0.3-1.6-0.7-2-1.3c-0.3-0.5-0.4-1-0.4-1.6c0-1.9,1.5-3.2,3.7-3.2c1.2,0,2.5,0.4,3.4,1L173.1,10
		z"/>
	<path class="st0" d="M178.9,7.8V18h-2.1V7.8H178.9z"/>
	<path class="st0" d="M188.8,7.8l-0.3,1.7H186V18h-2.1V9.5h-2.5V7.8H188.8z"/>
	<path class="st0" d="M192.6,7.8l1.3,2.8c0.3,0.6,0.4,0.9,0.5,1.3c0.1-0.3,0.3-0.8,0.5-1.3l1.3-2.8h2.4l-3.3,6V18h-2.1v-4.2l-3.2-6
		H192.6z"/>
</g>
</svg>
